<?xml version="1.0" encoding="utf-8" ?>
<svg xmlns="http://www.w3.org/2000/svg" xmlns:xlink="http://www.w3.org/1999/xlink" width="1024" height="1024">
	<path fill="#174E7D" d="M509.924 49.8078C764.702 48.5892 972.336 253.933 973.943 508.709C975.55 763.485 770.522 971.431 515.749 973.426C260.427 975.426 51.9336 769.86 50.3232 514.534C48.7128 259.209 254.597 51.0291 509.924 49.8078Z"/>
	<path fill="#FEFEFE" d="M510.804 97.735C610.311 97.9521 706.497 133.557 782.163 198.183C851.089 257.624 898.59 338.055 917.365 427.115C921.825 448.342 924.348 469.729 925.886 491.351C898.876 471.756 870.233 454.773 842.059 436.946L740.245 371.54L588.669 275.36C562.949 259.206 537.435 242.245 511.09 227.156C419.899 284.142 329.347 342.142 239.45 401.146L148.903 459.98C131.892 471.076 115.067 482.723 97.6336 493.137C102.497 393.296 143.112 298.537 212.061 226.165C278.872 156.498 367.756 112.129 463.591 100.608C479.272 98.69 495.022 98.0984 510.804 97.735Z"/>
	<path fill="#2D99D2" d="M493.231 115.705C501.595 114.575 510.859 115.333 519.315 115.46C570.454 116.227 606.662 125.295 654.775 141.036C645.715 147.552 635.994 152.978 626.474 158.772C617.27 164.471 608.136 170.284 599.076 176.21L563.368 199.335C553.246 205.988 543.441 212.861 532.636 218.388C525.711 214.121 518.81 209.831 511.681 205.909C498.651 212.176 486.745 221.012 474.581 228.778L410.042 269.939C399.913 275.983 389.986 282.378 379.916 288.523C359.14 277.507 339.796 264.291 319.885 251.848C297.509 237.865 274.787 224.638 253.283 209.285C266.087 200.768 277.345 190.178 290.289 181.786C353.252 140.96 418.604 120.595 493.231 115.705Z"/>
	<path fill="#2D99D2" d="M238.406 223.313C251.441 228.558 263.431 238.624 275.324 246.084C304.114 264.143 333.3 281.671 361.425 300.766C354.436 304.519 348.005 309.287 341.44 313.718C334.254 318.538 326.99 323.241 319.651 327.825L194.309 408.73C169.282 424.989 143.666 440.319 118.815 456.853C119.848 451.281 120.432 445.6 121.389 440.006C123.239 429.503 125.503 419.076 128.177 408.752C147.013 336.46 185.728 275.571 238.406 223.313Z"/>
	<path fill="#2D99D2" d="M782.487 222.922C783.058 223.244 783.566 223.615 784.089 224.009C794.027 231.495 802.463 242.487 810.696 251.779C861.617 308.876 894.379 379.845 904.804 455.636C896.827 450.766 889.094 445.362 881.213 440.326L831.455 408.934L662.642 301.201C674.723 292.993 687.365 285.642 699.556 277.604C727.202 259.377 754.554 240.709 782.487 222.922Z"/>
	<path fill="#2D99D2" d="M713.421 170.39C721.748 173.756 729.07 179.486 736.27 184.747C725.402 191.077 714.929 198.565 704.381 205.437L651.924 239.648C637.77 248.93 623.752 258.365 609.221 267.056C600.873 264.773 592.946 257.63 586.356 252.232C608.707 239.261 630.056 224.325 651.681 210.173C672.154 196.774 693.117 184.016 713.421 170.39Z"/>
	<path fill="#2D99D2" d="M672.018 148.907C679.873 150.223 690.762 157.219 697.698 161.424C671.521 179.171 644.591 195.813 618.04 212.988C602.863 222.976 587.758 233.073 572.726 243.278C572.623 243.32 572.524 243.374 572.416 243.403C568.982 244.301 551.244 231.212 547.252 228.632C571.112 214.614 594.308 199.11 617.543 184.073C635.695 172.326 654.123 161.046 672.018 148.907Z"/>
	<path fill="#2D99D2" d="M748.494 195.043C756.555 197.709 763.808 205.54 769.918 211.197C727.598 236.064 687.359 264.484 645.775 290.568C640.09 289.091 629.359 280.463 624.065 276.749C652.75 257.447 681.844 238.676 710.784 219.753C723.367 211.525 736.214 203.726 748.494 195.043Z"/>
	<path fill="#22253F" d="M502.908 305.222C514.503 304.632 526.518 305.466 538.033 306.891C581.861 311.894 623.163 329.998 656.543 358.839C698.398 394.683 722.937 447.724 727.014 502.251C730.873 553.871 711.136 607.841 677.496 646.725C637.694 692.734 583.61 719.133 523.125 723.435C467.658 725.277 411.062 707.316 369.426 669.844C327.571 632.177 300.585 583.437 297.651 526.505C294.819 471.534 312.087 417.815 349.174 376.672C389.634 331.787 442.968 308.357 502.908 305.222Z"/>
	<path fill="#FEFEFE" d="M502.21 320.292L502.867 320.23C549.061 316.206 606.175 336.825 641.22 366.589C681.868 401.112 707.102 446.842 711.225 500.41C715.15 551.41 697.257 599.417 664.273 638.003C628.294 680.091 576.814 703.569 522.096 707.919C468.946 709.965 419.661 692.644 379.362 658.019C340.647 624.872 316.848 577.579 313.298 526.737C309.824 476.469 326.393 426.87 359.382 388.783C396.104 346.153 446.738 324.443 502.21 320.292Z"/>
	<path fill="#22253F" d="M568.628 404.784C586.494 396.685 604.597 389.117 622.911 382.089C627.276 404.102 631.302 424.206 622.128 445.67C631.671 459.971 640.165 475.064 641.52 492.573C643.22 514.556 635.132 533.91 620.911 550.351C600.632 572.152 570.047 581.304 541.298 584.797C498.174 590.038 445.959 584.911 410.84 557.05C395.085 544.667 384.966 526.474 382.754 506.558C380.247 484.251 387.827 463.768 401.586 446.399C392.375 425.321 396.697 403.757 402.019 382.292C406.009 384.105 410.445 385.374 414.568 386.896C428.043 391.87 442.422 397.103 454.089 405.612C490.551 390.69 531.86 391.731 568.628 404.784Z"/>
	<path fill="#FEFEFE" d="M572.318 479.766C586.852 478.419 599.7 489.173 600.932 503.718C602.163 518.263 591.307 531.025 576.753 532.141C562.361 533.244 549.773 522.535 548.555 508.153C547.337 493.771 557.946 481.097 572.318 479.766Z"/>
	<path fill="#FEFEFE" d="M447.274 481.212C460.585 479.698 472.602 489.262 474.112 502.573C475.623 515.884 466.056 527.899 452.744 529.406C439.438 530.914 427.428 521.35 425.918 508.044C424.407 494.737 433.968 482.725 447.274 481.212Z"/>
	<path fill="#FEFEFE" d="M498.332 529.202C503.409 529.784 507.096 532.999 510.981 536.01C514.63 534.04 519.466 529.923 523.639 529.95C524.537 529.956 524.278 529.995 525.033 530.698C525.055 531.345 525.101 531.47 524.895 532.176C523.893 535.618 519.328 537.739 516.497 539.37C520.33 541.552 525.998 543.796 527.528 548.206C527.304 549.919 526.823 550.273 525.755 551.585C520.894 549.445 516.754 546.223 512.546 543.042C508.749 545.424 504.293 548.929 500.007 550.241C498.821 550.604 498.27 550.685 497.137 550.099C497.007 549.687 496.892 549.428 496.924 548.96C497.242 544.351 503.078 541.096 506.407 538.808C503.747 537.628 499.394 536.277 498.064 533.451C497.31 531.846 497.893 530.778 498.332 529.202Z"/>
	<path fill="#22253F" d="M468.623 589.394C475.658 589.953 482.657 590.923 489.705 591.435C511.624 593.027 533.138 592.709 554.87 589.296C558.32 593.722 561.26 598.523 563.635 603.608C568.674 614.585 572.282 638.91 567.81 650.233C565.801 655.32 562.348 657.677 557.542 659.727C544.461 662.384 524.996 660.456 511.166 660.437C498.223 660.419 484.554 661.496 471.696 660.132C468.105 659.752 464.442 659.022 461.287 657.183C457.944 655.234 455.789 652.366 454.958 648.586C453.927 643.897 454.43 638.794 454.721 634.035C455.813 616.201 458.716 604.402 468.623 589.394Z"/>
	<path fill="#22253F" d="M579.053 583.597C579.822 583.811 580.366 584.192 580.994 584.675C593.214 594.081 601.069 615.642 602.734 630.45C603.413 636.49 603.5 643.155 599.334 648.056C595.667 652.369 590.69 653.328 585.342 653.665C581.812 652.889 577.353 651.93 575.321 648.614C572.062 643.294 574.36 631.496 574.125 625.224C573.608 611.387 569.565 599.377 561.288 588.254C567.134 586.507 573.145 585.131 579.053 583.597Z"/>
	<path fill="#22253F" d="M444.202 583.416C450.06 583.971 456.623 586.458 462.389 587.869C457.488 595.486 453.409 603.004 451.479 611.948C450.553 616.433 450.064 620.997 450.017 625.576C449.916 631.398 452.089 646.05 449.027 650.686C447.896 652.398 444.296 653.077 442.404 653.606C440.941 653.617 439.439 653.661 437.98 653.54C433.722 653.188 429.624 651.193 426.986 647.788C422.353 641.807 422.808 632.565 423.579 625.434C425.413 608.448 430.737 594.286 444.202 583.416Z"/>
	<path fill="#FEFEFE" d="M925.125 532.388C925.724 532.51 925.382 532.368 925.973 533.107C926.78 542.027 924.675 552.017 923.538 560.894C917.353 611.442 901.85 660.406 877.813 705.302C836.082 783.141 770.817 845.8 691.342 884.327C675.725 891.96 659.831 899.373 643.169 904.439C641.553 898.684 642.522 879.275 642.55 872.083L642.772 810.684L642.842 752.451C642.809 739.767 642.126 726.788 643.398 714.156C651.017 707.347 661.035 701.983 669.671 696.486L718.185 665.698L838.808 588.829C867.82 570.369 897.184 552.455 925.125 532.388Z"/>
	<path fill="#174E7D" d="M903.92 569.07C903.994 569.181 904.092 569.278 904.142 569.401C905.295 572.236 902.865 580.435 902.226 583.572C896.984 609.317 890.451 634.299 880.606 658.707C839.663 760.219 760.912 837.197 660.657 879.871C658.932 874.761 659.917 843.94 659.926 835.935L660.429 724.487C677.567 714.469 693.904 702.957 710.481 692.04C727.666 680.943 744.916 669.948 762.23 659.055L850.147 602.832C868.039 591.53 886.385 580.926 903.92 569.07Z"/>
	<path fill="#FEFEFE" d="M97.936 533.733C105.207 536.561 113.743 543.635 120.607 547.975L196.594 596.884L326.695 679.612C345.029 691.389 363.973 702.409 381.658 715.136C382.165 740.436 381.617 765.687 381.559 790.984L381.425 902.857C381.337 902.874 381.251 902.899 381.161 902.907C376.389 903.329 365.973 898.236 361.291 896.33C318.488 879.3 278.679 855.544 243.368 825.959C172.431 766.029 123.792 683.915 105.323 592.906C101.375 573.421 99.7766 553.501 97.936 533.733Z"/>
	<path fill="#22253F" d="M118.362 568.063C125.557 570.61 132.522 576.558 138.938 580.732C146.705 585.709 154.514 590.622 162.362 595.47C210.128 624.789 257.182 655.412 304.443 685.548C324.418 698.285 344.14 711.471 364.498 723.592L364.346 878.818C357.498 877.672 349.989 873.109 343.753 870.016C318.37 857.423 293.738 843.976 271.12 826.793C187.776 764.335 132.793 671.208 118.362 568.063Z"/>
	<path fill="#FEFEFE" d="M497.82 808.006C507.399 807.891 516.979 807.97 526.555 808.243C526.532 814.999 526.555 821.755 526.623 828.511C533.118 830.518 539.455 832.993 545.817 835.381L559.398 821.148C566.679 827.78 573.71 834.682 580.476 841.839C575.469 846.617 569.574 850.498 564.467 855.232C567.622 861.189 570.224 867.092 572.339 873.499C580.234 873.48 588.129 873.505 596.023 873.572L596.063 902.578C588.369 902.27 580.671 902.056 572.972 901.936C570.977 908.943 568.009 915.399 564.922 921.969C570.141 925.8 575.292 929.688 580.05 934.087C573.49 941.25 566.421 947.966 559.499 954.777C554.773 950.414 550.339 945.656 545.832 941.064C539.88 944.436 533.215 946.868 526.883 949.427C526.941 954.891 527.845 967.287 526.402 972.037L525.755 972.241L497.2 972.32C497.311 964.552 497.327 956.782 497.248 949.014C490.903 946.604 484.635 943.956 478.346 941.403C473.837 946.042 469.676 951.028 465.437 955.911C458.122 949.321 451.361 942.139 445.224 934.438C449.697 929.908 454.745 926.04 459.806 922.204C456.512 915.59 453.503 909.044 451.167 902.013L429.878 903.042L429.705 872.78C436.85 873.133 443.993 873.536 451.133 873.99C453.778 867.257 456.859 860.816 460.145 854.38C455.46 849.842 450.453 845.648 445.513 841.391C450.422 833.797 458.183 827.109 465.06 821.349C469.957 826.013 474.42 831.013 478.884 836.084C485.064 833.436 491.284 830.881 497.541 828.42C497.918 821.615 497.854 814.818 497.82 808.006Z"/>
	<path fill="#174E7D" d="M507.893 856.753C525.761 854.316 542.223 866.821 544.668 884.688C547.112 902.556 534.614 919.023 516.748 921.475C498.871 923.929 482.391 911.421 479.945 893.543C477.499 875.665 490.014 859.191 507.893 856.753Z"/>
</svg>
